<?xml version="1.0" encoding="UTF-8"?>
<svg id="Layer_2" data-name="Layer 2" xmlns="http://www.w3.org/2000/svg" viewBox="0 0 772.56 1027.03">
  <defs>
    <style>
      .cls-1 {
        fill: #65675c;
      }

      .cls-2 {
        fill: #676861;
      }

      .cls-3 {
        fill: #f06d25;
      }
    </style>
  </defs>
  <g id="Layer_1-2" data-name="Layer 1">
    <g>
      <g>
        <path class="cls-1" d="M334.4,875.81l1.85,2.7c.95,1.37,1.85,2.62,2.7,3.73.85,1.11,1.75,2.17,2.72,3.17.97,1.01,1.89,1.82,2.75,2.43.86.62,1.68,1.06,2.46,1.32.78.26,1.52.4,2.22.4,1.94,0,3.61-.36,5.03-1.09,1.41-.72,2.77-1.72,4.07-2.99l2.54,3.28c-2.75,2.75-5.31,4.73-7.67,5.93-2.36,1.2-4.8,1.8-7.3,1.8-2.01,0-3.67-.19-4.97-.58-1.31-.39-2.6-1.02-3.89-1.9-1.29-.88-2.72-2.22-4.31-4.02-1.59-1.8-3.42-4.25-5.5-7.35l-3.76-5.55c-8.78-.42-15.42-3.72-19.92-9.89-4.5-6.17-6.74-14.97-6.74-26.4,0-7.86,1.2-14.62,3.6-20.26,2.4-5.64,5.83-9.94,10.29-12.88,4.46-2.94,9.64-4.42,15.53-4.42,6.28,0,11.56,1.38,15.84,4.15,4.29,2.77,7.51,6.84,9.68,12.22,2.17,5.38,3.25,11.93,3.25,19.65,0,9.81-1.75,17.84-5.24,24.1-3.49,6.26-8.57,10.41-15.24,12.46ZM307.58,839.31c0,10.83,1.58,19.06,4.74,24.7,3.16,5.64,7.77,8.46,13.83,8.46,3.84,0,7.11-1.22,9.79-3.68,2.68-2.45,4.69-6.04,6.03-10.77,1.34-4.72,2.01-10.24,2.01-16.56,0-7.69-.79-14.06-2.35-19.12-1.57-5.06-3.71-8.74-6.43-11.03-2.72-2.29-5.87-3.44-9.47-3.44-3.17,0-5.9.74-8.17,2.22-2.28,1.48-4.16,3.59-5.66,6.32-1.5,2.73-2.59,6.04-3.28,9.92-.69,3.88-1.03,8.2-1.03,12.96Z"/>
        <path class="cls-1" d="M363.18,804.08h57.24v18.41h-5.18c-.78-3.03-1.54-5.43-2.3-7.19-.76-1.76-1.56-3.1-2.41-4.02s-1.75-1.57-2.72-1.96c-.97-.39-2.43-.58-4.36-.58h-6.72v54.17c0,2.08.11,3.74.34,4.97.23,1.24.58,2.21,1.06,2.94.48.72,1.12,1.29,1.93,1.69.81.41,2.08.8,3.81,1.19v2.59h-24.18v-2.59c1.06-.25,1.99-.51,2.8-.79.81-.28,1.47-.63,1.98-1.03.51-.4.93-.93,1.27-1.56s.6-1.5.79-2.59c.19-1.09.29-2.7.29-4.81v-54.17h-6.67c-1.66,0-3.03.16-4.1.48-1.08.32-2.07.98-2.99,1.98-.92,1.01-1.75,2.43-2.51,4.28s-1.47,4.19-2.14,7.01h-5.24v-18.41Z"/>
        <path class="cls-1" d="M477.55,805.61v14.65h-5.24c-.85-3.07-1.92-5.51-3.23-7.33-1.31-1.82-2.82-3.11-4.55-3.89-1.73-.78-3.81-1.16-6.24-1.16-3.63,0-6.87,1.21-9.71,3.62-2.84,2.42-5.07,6.05-6.69,10.9-1.62,4.85-2.43,10.71-2.43,17.59s.67,12.81,2.01,17.69c1.34,4.89,3.31,8.57,5.93,11.06,2.61,2.49,5.82,3.73,9.63,3.73,2.89,0,5.25-.41,7.09-1.24,1.83-.83,3.38-2.14,4.63-3.94,1.25-1.8,2.44-4.44,3.57-7.93h5.24v15.13c-3.31.88-6.71,1.54-10.18,1.98-3.47.44-7.29.66-11.45.66-8.96,0-15.73-3.03-20.31-9.1-4.58-6.07-6.88-15.11-6.88-27.14,0-7.55,1.19-14.16,3.57-19.84,2.38-5.68,5.88-10.07,10.5-13.17,4.62-3.1,10.14-4.66,16.56-4.66,3.21,0,6.17.17,8.89.5,2.72.34,5.82.96,9.31,1.88Z"/>
        <path class="cls-1" d="M25.25,1002.7c0,4.76-.56,8.62-1.67,11.58s-2.98,5.47-5.61,7.51c-2.63,2.05-6.3,3.79-11.03,5.24l-1.75-4.66c3.1-1.2,5.31-2.41,6.61-3.62,1.3-1.22,2.21-2.74,2.72-4.58.51-1.83.77-4.3.77-7.41v-59.46c0-3.07-.15-5.17-.45-6.29-.3-1.13-.79-1.99-1.48-2.59-.69-.6-2.11-1.18-4.26-1.75v-2.59h22.32v2.59c-1.55.39-2.67.78-3.36,1.16-.69.39-1.23.87-1.64,1.45-.41.58-.71,1.46-.9,2.62-.19,1.16-.29,2.96-.29,5.4v55.39Z"/>
        <path class="cls-1" d="M71.48,1007.14c-4.23,0-8.09-.7-11.56-2.09-3.47-1.39-6.45-3.56-8.94-6.51-2.49-2.94-4.41-6.71-5.77-11.29-1.36-4.58-2.04-10.07-2.04-16.45,0-7.86,1.2-14.62,3.6-20.26,2.4-5.64,5.83-9.94,10.29-12.88,4.46-2.94,9.64-4.42,15.53-4.42,6.28,0,11.56,1.38,15.84,4.15,4.29,2.77,7.51,6.84,9.68,12.22,2.17,5.38,3.25,11.93,3.25,19.65,0,8.25-1.23,15.22-3.7,20.9-2.47,5.68-5.95,9.93-10.45,12.75-4.5,2.82-9.74,4.23-15.74,4.23ZM54.08,969.32c0,10.83,1.58,19.06,4.74,24.7,3.16,5.64,7.77,8.46,13.83,8.46,3.84,0,7.11-1.22,9.79-3.68,2.68-2.45,4.69-6.04,6.03-10.77,1.34-4.72,2.01-10.24,2.01-16.56,0-7.69-.79-14.06-2.35-19.12-1.57-5.06-3.71-8.74-6.43-11.03-2.72-2.29-5.87-3.44-9.47-3.44-3.17,0-5.9.74-8.17,2.22-2.28,1.48-4.16,3.59-5.66,6.32-1.5,2.73-2.59,6.04-3.28,9.92-.69,3.88-1.03,8.2-1.03,12.96Z"/>
        <path class="cls-1" d="M130.2,993.07c0,2.36.08,4.09.24,5.18.16,1.09.42,1.96.79,2.59s.92,1.16,1.64,1.59c.72.42,1.9.85,3.52,1.27v2.59h-22.32v-2.59c2.19-.56,3.65-1.19,4.39-1.88.74-.69,1.22-1.67,1.46-2.94.23-1.27.34-3.21.34-5.82v-45.76c0-2.43-.09-4.21-.26-5.32-.18-1.11-.47-1.98-.87-2.59-.41-.62-.94-1.11-1.61-1.48-.67-.37-1.82-.78-3.44-1.24v-2.59h22.32v2.59c-1.55.39-2.67.78-3.36,1.16-.69.39-1.23.87-1.64,1.45-.41.58-.71,1.46-.9,2.62-.19,1.16-.29,2.96-.29,5.4v45.76Z"/>
        <path class="cls-1" d="M191.67,977.68c1.27,2.12,2.34,3.97,3.2,5.55.86,1.59,1.75,3.37,2.67,5.34h.69c-.18-2.15-.34-6.43-.48-12.83s-.21-12.18-.21-17.33v-11.11c0-2.43-.07-4.21-.21-5.34-.14-1.13-.4-1.99-.77-2.59-.37-.6-.88-1.08-1.53-1.45-.65-.37-1.79-.78-3.41-1.24v-2.59h19.04v2.59c-1.59.42-2.71.81-3.36,1.16-.65.35-1.18.81-1.59,1.38-.41.56-.71,1.41-.93,2.54-.21,1.13-.32,2.98-.32,5.55v59.3h-6.61l-29.47-49.41c-1.83-3.07-3.14-5.31-3.91-6.72-.78-1.41-1.5-2.8-2.17-4.18h-.9c.25,2.72.42,7.63.53,14.73.11,7.11.16,14.19.16,21.24v10.79c0,2.36.08,4.09.24,5.18.16,1.09.42,1.96.79,2.59s.92,1.16,1.64,1.59c.72.42,1.9.85,3.52,1.27v2.59h-19.31v-2.59c2.19-.56,3.65-1.19,4.39-1.88.74-.69,1.23-1.67,1.46-2.94.23-1.27.34-3.21.34-5.82v-45.76c0-2.43-.09-4.21-.26-5.32-.18-1.11-.47-1.98-.87-2.59-.41-.62-.94-1.11-1.61-1.48-.67-.37-1.82-.78-3.44-1.24v-2.59h16.56l26.13,43.59Z"/>
        <path class="cls-1" d="M220.03,934.09h57.24v18.41h-5.18c-.78-3.03-1.54-5.43-2.3-7.19-.76-1.76-1.56-3.1-2.41-4.02-.85-.92-1.75-1.57-2.72-1.96-.97-.39-2.43-.58-4.36-.58h-6.72v54.17c0,2.08.11,3.74.34,4.97.23,1.24.58,2.21,1.06,2.94.48.72,1.12,1.29,1.93,1.69.81.41,2.08.8,3.81,1.19v2.59h-24.18v-2.59c1.06-.25,1.99-.51,2.8-.79.81-.28,1.47-.63,1.98-1.03.51-.4.93-.93,1.27-1.56.33-.63.6-1.5.79-2.59.19-1.09.29-2.7.29-4.81v-54.17h-6.67c-1.66,0-3.02.16-4.1.48-1.08.32-2.07.98-2.99,1.98-.92,1.01-1.75,2.43-2.51,4.28s-1.47,4.19-2.14,7.01h-5.24v-18.41Z"/>
        <path class="cls-1" d="M329.69,934.09v2.59c-1.62.28-2.86.63-3.7,1.06-.85.42-1.48,1.02-1.9,1.8-.42.78-.63,1.82-.63,3.12,0,1.2.14,2.5.42,3.89.28,1.39.69,2.95,1.22,4.68l12.38,43.17,15.18-43.48c.21-.67.42-1.38.63-2.12.21-.74.4-1.46.56-2.17s.26-1.32.32-1.85c.05-.53.08-1.02.08-1.48,0-2.12-.49-3.66-1.46-4.63-.97-.97-2.62-1.63-4.95-1.98v-2.59h22.22v2.59c-1.45.35-2.61.87-3.49,1.53-.88.67-1.75,1.75-2.62,3.23-.86,1.48-1.91,3.84-3.15,7.09l-21.95,58.61h-6.93l-17.83-58.98c-.95-3.21-1.78-5.49-2.49-6.85-.71-1.36-1.48-2.38-2.33-3.07-.85-.69-2.01-1.21-3.49-1.56v-2.59h23.91Z"/>
        <path class="cls-1" d="M425.86,934.09v15.98h-5.18c-.53-1.73-1.08-3.24-1.64-4.55-.57-1.3-1.15-2.4-1.75-3.28-.6-.88-1.26-1.59-1.98-2.12-.72-.53-1.58-.89-2.57-1.09-.99-.19-2.17-.29-3.54-.29h-16.72v27.72h11.32c1.55,0,2.77-.22,3.65-.66.88-.44,1.61-1.19,2.2-2.25.58-1.06,1.14-2.72,1.67-4.97h4.97v20.31h-4.97c-.49-2.12-1.04-3.71-1.64-4.79-.6-1.08-1.31-1.84-2.14-2.3-.83-.46-2.07-.69-3.73-.69h-11.32v30.52h16.45c1.73,0,3.13-.15,4.21-.45,1.08-.3,2-.81,2.78-1.53.78-.72,1.46-1.67,2.06-2.83s1.1-2.37,1.51-3.62c.41-1.25.96-3.08,1.67-5.47h5.24l-1.01,18.57h-48.99v-2.59c2.19-.56,3.65-1.19,4.39-1.88.74-.69,1.23-1.67,1.45-2.94s.34-3.21.34-5.82v-45.76c0-2.43-.09-4.21-.26-5.32-.18-1.11-.47-1.98-.87-2.59-.41-.62-.94-1.11-1.61-1.48-.67-.37-1.82-.78-3.44-1.24v-2.59h49.46Z"/>
        <path class="cls-1" d="M481.2,977.68c1.27,2.12,2.34,3.97,3.2,5.55.86,1.59,1.75,3.37,2.67,5.34h.69c-.18-2.15-.34-6.43-.48-12.83-.14-6.4-.21-12.18-.21-17.33v-11.11c0-2.43-.07-4.21-.21-5.34-.14-1.13-.4-1.99-.77-2.59-.37-.6-.88-1.08-1.53-1.45-.65-.37-1.79-.78-3.41-1.24v-2.59h19.04v2.59c-1.59.42-2.71.81-3.36,1.16-.65.35-1.18.81-1.59,1.38-.41.56-.71,1.41-.93,2.54-.21,1.13-.32,2.98-.32,5.55v59.3h-6.61l-29.47-49.41c-1.83-3.07-3.14-5.31-3.91-6.72-.78-1.41-1.5-2.8-2.17-4.18h-.9c.25,2.72.42,7.63.53,14.73.11,7.11.16,14.19.16,21.24v10.79c0,2.36.08,4.09.24,5.18.16,1.09.42,1.96.79,2.59s.92,1.16,1.64,1.59c.72.42,1.89.85,3.52,1.27v2.59h-19.31v-2.59c2.19-.56,3.65-1.19,4.39-1.88.74-.69,1.22-1.67,1.45-2.94.23-1.27.34-3.21.34-5.82v-45.76c0-2.43-.09-4.21-.26-5.32-.18-1.11-.47-1.98-.87-2.59-.41-.62-.94-1.11-1.61-1.48-.67-.37-1.82-.78-3.44-1.24v-2.59h16.56l26.13,43.59Z"/>
        <path class="cls-1" d="M509.55,934.09h57.24v18.41h-5.18c-.78-3.03-1.54-5.43-2.3-7.19-.76-1.76-1.56-3.1-2.41-4.02s-1.75-1.57-2.72-1.96c-.97-.39-2.43-.58-4.36-.58h-6.72v54.17c0,2.08.11,3.74.34,4.97.23,1.24.58,2.21,1.06,2.94.48.72,1.12,1.29,1.93,1.69.81.41,2.08.8,3.81,1.19v2.59h-24.18v-2.59c1.06-.25,1.99-.51,2.8-.79.81-.28,1.47-.63,1.98-1.03.51-.4.93-.93,1.27-1.56s.6-1.5.79-2.59c.19-1.09.29-2.7.29-4.81v-54.17h-6.67c-1.66,0-3.03.16-4.1.48-1.08.32-2.07.98-2.99,1.98-.92,1.01-1.76,2.43-2.51,4.28-.76,1.85-1.47,4.19-2.14,7.01h-5.24v-18.41Z"/>
        <path class="cls-1" d="M629.8,981.33c0,3.84-.35,7.16-1.06,9.95-.67,2.64-1.67,4.99-3.02,7.04-1.23,1.83-2.77,3.39-4.6,4.68s-4.06,2.3-6.67,3.04c-2.61.74-5.68,1.11-9.2,1.11-4.27,0-7.93-.48-10.98-1.43s-5.57-2.51-7.56-4.68c-1.99-2.17-3.43-4.72-4.31-7.67-.88-2.94-1.32-6.69-1.32-11.24v-34.81c0-2.75-.09-4.61-.26-5.58-.18-.97-.43-1.74-.77-2.3s-.82-1.05-1.45-1.45-1.82-.84-3.54-1.3v-2.59h22.22v2.59c-1.98.49-3.35,1.05-4.13,1.67-.78.62-1.31,1.54-1.59,2.78-.28,1.24-.42,3.3-.42,6.19v37.45c0,3.42.36,6.29,1.09,8.62.72,2.33,1.74,4.14,3.04,5.42,1.3,1.29,2.86,2.22,4.66,2.8s4.04.87,6.72.87c2.47,0,4.64-.43,6.51-1.3s3.43-2.18,4.68-3.94c1.25-1.76,2.11-3.93,2.56-6.51.46-2.57.69-6.03.69-10.37v-33.06c0-3.07-.15-5.17-.45-6.29-.3-1.13-.79-1.99-1.48-2.59-.69-.6-2.11-1.18-4.26-1.75v-2.59h21.11v2.59c-2.05.53-3.45,1.11-4.21,1.75s-1.28,1.55-1.56,2.75c-.28,1.2-.42,3.25-.42,6.14v34.02Z"/>
        <path class="cls-1" d="M663.02,974.93v17.99c0,2.54.1,4.38.29,5.53.19,1.15.48,2.01.87,2.59s.92,1.06,1.59,1.43c.67.37,1.82.79,3.44,1.24v2.59h-22.32v-2.59c2.19-.56,3.65-1.19,4.39-1.88.74-.69,1.23-1.67,1.45-2.94s.34-3.21.34-5.82v-45.76c0-2.43-.09-4.21-.26-5.32-.18-1.11-.47-1.98-.87-2.59-.41-.62-.94-1.11-1.61-1.48-.67-.37-1.82-.78-3.44-1.24v-2.59h26.19c8.25,0,14.42,1.5,18.52,4.5,4.09,3,6.14,7.65,6.14,13.96,0,4.83-1.33,8.94-3.99,12.33-2.66,3.39-6.66,6.03-11.98,7.94v.42c2.15.88,3.99,2.14,5.53,3.78s3.24,4.19,5.11,7.64l4.76,8.68c1.38,2.54,2.56,4.48,3.54,5.82.99,1.34,1.99,2.36,3.02,3.07,1.02.71,2.38,1.2,4.07,1.48v2.59h-14.65c-1.34-1.87-2.61-3.88-3.81-6.03-1.2-2.15-2.38-4.34-3.54-6.56l-4.66-8.83c-1.41-2.68-2.56-4.66-3.47-5.93-.9-1.27-1.73-2.16-2.49-2.67-.76-.51-1.57-.86-2.43-1.06s-2.16-.29-3.89-.29h-5.82ZM663.02,938.95v31.42h5.98c3.07,0,5.55-.22,7.46-.66s3.67-1.28,5.29-2.51c1.62-1.23,2.92-2.95,3.89-5.16s1.46-4.91,1.46-8.12-.57-6.14-1.72-8.36-2.88-3.91-5.21-5.08c-2.33-1.16-5.47-1.75-9.42-1.75-3.17,0-5.75.07-7.72.21Z"/>
        <path class="cls-1" d="M763.64,934.09v15.98h-5.18c-.53-1.73-1.08-3.24-1.64-4.55-.57-1.3-1.15-2.4-1.75-3.28-.6-.88-1.26-1.59-1.98-2.12-.72-.53-1.58-.89-2.57-1.09-.99-.19-2.17-.29-3.54-.29h-16.72v27.72h11.32c1.55,0,2.77-.22,3.65-.66.88-.44,1.61-1.19,2.2-2.25.58-1.06,1.14-2.72,1.67-4.97h4.97v20.31h-4.97c-.49-2.12-1.04-3.71-1.64-4.79-.6-1.08-1.31-1.84-2.14-2.3-.83-.46-2.07-.69-3.73-.69h-11.32v30.52h16.45c1.73,0,3.13-.15,4.21-.45,1.08-.3,2-.81,2.78-1.53.78-.72,1.46-1.67,2.06-2.83s1.1-2.37,1.51-3.62c.41-1.25.96-3.08,1.67-5.47h5.24l-1.01,18.57h-48.99v-2.59c2.19-.56,3.65-1.19,4.39-1.88.74-.69,1.23-1.67,1.45-2.94s.34-3.21.34-5.82v-45.76c0-2.43-.09-4.21-.26-5.32-.18-1.11-.47-1.98-.87-2.59-.41-.62-.94-1.11-1.61-1.48-.67-.37-1.82-.78-3.44-1.24v-2.59h49.46Z"/>
      </g>
      <g>
        <g>
          <path class="cls-2" d="M195.71,770.96c-14.49,1.65-38.28-3.25-51.94-7.47-13.47-4.16-15.83-5.54-27.45-12.86l-6-3.78c-3.39-2.14-8.14-4.92-10.68-8.13l-12.79-16.16c-3.71-1.52-4.28,13.44-4.44,16.18-.91,15.28-3.29,9.63-2.32,21.85-.79.95-4.14,2.5-5.72,2.48l-43.54-.59c-6.84-.09-13.24-.05-20.46.25-1.78.07-5.29-.3-6.15-1.51s-.58-4.25-.54-6.1l.16-7.52.16-7.77.11-8.42.13-7.9-.18-17.14.37-14.08-.07-7.88c-.02-2.46.23-5.04.38-7.26l-.19-7.28-.28-8.54c-.06-1.87-.51-3.89-.25-6,.93-7.6.41-14.94.4-22.42v-6.97s-.24-6.95-.24-6.95l.46-6.54.32-21.47.18-5.63-.17-18.64.06-6.95.02-5.93.16-16.74-.03-14.79-.13-7.71.5-7.67-.17-7.51-.03-7.71.03-15.96.13-7.37-.21-7.34.06-7.85.17-7.43.18-7.81.08-7.71c.09-8.54-1.1-15.29.43-22.64l-.94-4.09c.68-4.79,1.01-9.32.93-13.97l-.15-9.09.12-7.63-.29-7.19.15-17.59.27-13.61c.15-7.61-1.25-8.36,1.83-12.56l9.73,10.06c5.46,5.65,10.76,11.74,17.1,16.21,15.75,11.1,21.12,13.88,39.15,19.14l11.83,3.45-.29,14.84-.11,62.78.33,22.57c.04,2.51.05,6.07.63,7.07l5.91-6.5c9.32-10.25,18.14-16.91,30.69-22.87l14.19-6.74c27.43-13.04,56.96-13.08,86.74-10.21l6.75,2.2c3.98-.65,7.12.38,11.07,1.42l5.86,1.55c17.17,4.55,43.29,18.53,57.34,30.24,2.27,1.89,4,4.29,6.01,6.39l7.99,8.37c2.06,2.16,5.23,4.8,6.68,7.39,3.33,5.95,6.41,11.12,10.25,16.75,1.94,2.84,2.79,5.87,4.11,8.72l4.26,9.21,4.65,12.46c1.36,3.64,1.87,8.19,3.12,12.15.65,2.05.75,4.53,1.08,6.55l2.16,13.28c.23,1.41.89,3.43,1.42,5.21.4,1.32-.37,4.05-.24,5.36.22,2.33.8,6.22.85,8.78l.32,15.81c.05,2.64.1,5.35-.21,8.05l-.84,7.21-.99,10.01-2.43,14.53c-.42,2.48-1.23,4.91-1.91,7.48l-2.72,10.3c-1.44,5.46-3.91,11.2-6.44,16.46l-4.14,8.6-4.68,8.88c-1.63,3.09-3.76,7.47-5.96,10.11l-11.82,14.19c-.6.72-11.45,11.4-11.8,11.67l-8.74,6.98c-5.96,4.76-25.31,15.99-32.45,18.65-5.07,1.89-10.23,3.93-15.29,5.28l-16.19,4.32c-5.37,1.43-10.72,2.11-16.17,2.67l-9.72,1.01-9.46,1.08ZM187.62,695.3l9.05-.79c10.46-.91,20.45-3.94,28.97-9.14l14.49-8.84c5.23-3.19,9.12-8.75,13.73-12.83,2.98-2.63,4.76-5.43,6.75-9.09l5.74-10.52c5.25-9.62,9.16-24.01,9.69-34.5l.57-11.35c1-20.01-7.05-41.72-18.22-58.27-2.57-3.81-5.49-6.6-8.69-9.72-7.92-7.73-16.51-13.83-26.94-17.7l-7.08-2.63c-7.47-2.77-14.37-3.94-22.15-4.32-4.99-.24-9.89-.99-14.86-.24-4.56.69-10.04-.1-13.99,1.28l-17.91,6.28c-6.73,2.36-13.15,7.28-18.7,10.96l-3.73,2.48-8.08,8.06-6.25,6.44c-2.44,2.51-4.33,6.97-6.27,10.13-4.67,7.63-8.34,14.6-10.01,23.31-3.75,19.59-4.97,39.27,1.87,58.7,2.78,7.91,7.3,15.17,11.08,22.8,1.46,2.95,4.42,5.55,6.56,7.81l7.54,7.98c4.17,4.42,19.53,13.68,24.63,15.68,10.15,3.98,19.69,7.67,30.61,7.37,3.49-.1,8.05.95,11.59.64Z"/>
          <path class="cls-2" d="M733.72,405.93l-5.13-7.49c-6.91-10.09-14.49-19.09-23.45-27.43-11.61-10.8-21.08-9.84-21.05-15.3l.23-38.33-.25-8.18c-.19-6.13.31-11.46-.59-17.72-4.74,2.39-6.08,5.75-9.05,8.91-5.62,5.99-12.09,11.09-19.44,15.46l-13.16,7.84c-5.37,3.2-27.52,10.18-34.66,12.13-2.38.65-5.74.74-8.25,1.28-4.9,1.07-9.37,2.46-14.54,2.24-10.33-.44-20.39.51-30.63-.47-8.46-.81-31.79-6.12-40.29-8.96l-9.58-3.2-11.29-5.56c-13.04-6.43-32.88-19.98-41.81-31.13l-11.87-14.82c-1.19-1.49-10.85-20.01-11.88-22.51l-5.89-14.3c-2.5-6.07-5.19-16.85-6.15-22.93l-1.68-10.7-.92-6.92-.58-6.34c-.92-10.02-1.31-19.77-.7-29.87l.62-10.29c.2-3.29.5-6.29,1-9.67l1.38-9.34c2.92-19.7,12.39-41.23,21.87-58.78,3.07-5.7,6.78-10.19,10.89-14.85,2.7-3.06,4.94-6.79,7.94-9.44,2.18-1.93,3.26-4.35,5.67-6.15l10.74-7.97c2.12-1.58,2.75-3.59,4.86-4.76l19.79-10.93c3.06-1.69,22.6-10.54,24.83-10.86,4.48-.65,8.04-.53,11.91-2.72,2.9-1.64,6.32-1.58,9.53-2.09l10.75-1.69c7.09-1.12,12.27-1.77,19.56-1.75l6.83.03c2.74.01,5.87-.02,8.55-.15,9.54-.45-.28-.41,12.63,1.3l6.3.83c.91.12,2.95-.04,3.81.21,4.72,1.34,9.49,2.41,13.83,4.09,7.26,2.81,6.71.23,17.41,6.61l3.77,2.25c6.99,4.17,14.89,7.89,20.4,13.93l8.24,9.02c8.15,8.92,3.21,7.71,9.32,9.89.71-4.38,1.49-7.91,1.84-11.76l2.28-24.64c.12-1.29,1.67-3.93,2.72-4.62,1.21-.79,4.04-.5,5.88-.54l8.79-.22c8.67-.22,7.8.46,19.8-.08l7.5-.34,5.88.43,9.72-.5c1.92-.1,4.6.23,6.78.2l9.1-.14c.7,1.47,1.2,5.56,1.15,8.16l-.21,12.26-.26,15.99-.06,21.97-.09,35.99.15,32.39-.06,9.23.13,9.38.18,13.27-.2,15.64.41,6.96-.04,17.34-.03,16.5-.05,19.47-.03,10.97.03,53.87.34,15.31.18,41.44-.12,8.16-.17,7.38.18,15.23.11,7.75-.05,8.59-.23,6.76.37,19.62-.15,9.75c-.01.85-.06,1.58-.1,2.06-.06.64-2.55,1.11-3.02.4-2.72-4.09-7.58-12.04-11.26-16.32-1.86-2.16-3.22-3.44-4.42-5.44l-4.64-7.73-8.19-12.58ZM565.63,262.82c10.17,1.15,21.17,1.51,31.7-.2,2.76-.45,4.87-1.19,7.64-1.04,4.15.22,8.63-3.59,12.63-3.9,5.15-.4,8.7-1,12.75-4.65l5.18-4.67c6.19-5.58,8.16-.84,21.09-18.08,2.68-3.58,6.21-6.92,8.32-10.9,3.61-6.82,8.24-13.22,9.69-20.82l1.69-8.89c3.28-17.26,2.88-20.94.7-38.14-2.02-15.93-11.15-34.52-21.66-46.34s-17.68-15.35-31.57-23.03c-6.65-3.68-14.03-4.8-21.3-6.47-3.95-.91-7.04-1.62-11.1-1.52l-13.73.35c-8.26.21-16.14,1.52-23.7,4.57-6.73,2.72-13.1,5.38-19.38,9.43-2,1.29-5.28,2.89-6.94,4.27-19.91,16.48-25.79,30.03-34.59,54.11.15,9.33-.99,3.67-1.6,16.74l-.33,7.08c-.11,2.28-.13,4.48.21,6.82l1.71,11.59c.52,3.53,1.11,7.18,2.16,10.68l3.56,11.92c.65,2.19,3.7,5.35,4.99,7.69,5.09,9.29,14.01,21.87,23.14,26.84,3.16,1.72,9.09,7.62,13.8,9.05l24.95,7.52Z"/>
        </g>
        <g>
          <path class="cls-3" d="M486.4,764.5l-13.06.26-9.44-.08-6.5-.3-8.81-.05-6.79-.09-13.79.39-6.3-.34c-2.52-.14-4.86,0-7.35-.03l-42.71-.37-8.96.11c-5.55.07-7.69-.3-14.99-.14l-8.27.18-7.81.05-7.31-.07c-1.38-.01-4.57-.48-4.31-1.71l9.12-9.26c1.75-1.78,2.79-3.37,4.68-5.16l6.12-5.8,4.26-5.61,9.67-12.7c-.64.84,8.86-18.18,9.5-19.57,1.11-2.43,1.53-6.39,2.36-9.34l3.36-11.8,26.74-.25,9.39.08c2.29.02,4.75.3,6.77.49,1.67-.08,4.39-.41,6.4-.38l25.76.34,5.36-.25,12.52-.46,9.13.18,4.48.08c1.17.02.42-3.71-.57-4.35-2.29-1.48-7.01-2.95-8.35-4.84l-6.47-9.12c-2.15-3.03-5.81-6.3-7.48-9.36l-10.99-20.2c-.47-.87-.9-3.15-1.23-4.01l-2.69-7.2c-1.81-4.85-3.23-9.7-4.34-14.61l-2.26-10.02-1.17-9.75c-1.39-11.53-1.52-21.52-.22-32.95l1.58-13.83c1.32-11.61,8.63-34.87,13.53-45.31,4.95-10.55,8.47-16.68,15.67-25.72l5.92-7.43c7.75-9.74,8.42-8.08,13.4-14.39,2.66-3.37,8.24-4.84,11.41-7.63,1.85-1.63,3.63-5.03,6.16-6.23l24.66-11.75c5.14-2.45,9.96-3.94,15.77-5.06,2.46-.47,6.19-2.97,8.52-3.22,3.2-.35,5.49-.59,8.41-1.34,3.9-1,7.88-1.3,11.46-2,3.26-.64,6.11-1.29,9.4-1.38l9.77-.26,7.87-.2,6.5-.16c2.9-.07,5.94-.46,8.88-.21l6.58.57,6.86.49,8.67.56c4,.26,7.92.84,11.73,1.91l13.25,3.71,7.05,1.97c4.96,1.39,10.07,4.35,15.08,6.33l5.43,2.15c12.38,4.9,8.41,4.15,20.12,11.22,3.84,2.32,6.87,5.09,10.28,7.97l6.74,5.7,7.96,7.4c6.23,5.79,10.31,12.7,14.76,19.41,3.88,5.86,6.47,11.87,9.85,17.96l4.05,7.31,2.23,5.46c5.25,12.86,5.78,14.62,8.76,27.65,1.21,5.28,1.17,10.58,1.9,16.17l1.26,9.61c1.37,10.5,1.84,20.84.32,31.53l-2.05,14.37c-.8,5.64-3.53,11.11-4.78,16.79-.63,2.86-2.65,5.97-3.61,8.65-1.39,3.91-2.98,7.27-5.2,10.82l-3.29,5.25c-1.39,2.22-2.71,4.26-4.31,6.3l-5.09,6.46c-2.31,2.93-4.79,5.44-7.44,7.89l-11.18,10.32c2.97,2.87,15.9,4.8,22.19,5.2,12.73.81,6.86,1.12,16.19,2.1.54.06,1.1,1.89,1.12,2.59l.41,21.02.17,24.53.05,3.85.04,12.58-.07,11.36-26.47.31-8.15.06-16.65-.2c-5.1-.06-9.95-.21-15.06-.04-1.76.06-4.41.58-6.3.5l-8.77-.36-8.32-.4-8.07-.28c-2.38-.08-4.97-.01-7.32.1-5.81.27-11.39.02-17.13-.02l-12.18-.08c-5.18-.03-10.31.11-15.58.08l-19.2-.11-15.43-.31-7.73.29h-7.64s-7.07-.17-7.07-.17l-7.72.06-8.92-.25-16.42.22-22.76-.06-15.48-.35ZM591.91,677.82c1.91.28,4.27.78,6.17.69l7.06-.31c2.77-.12,5.18-.61,8.15-.85l6.76-.54,12.1-2.53c6.52-1.36,14.46-5.39,19.22-9.54,5.8-5.06,11.4-8.87,18.03-12.2l1.95-3.73,5.59-6.04c1.64-1.78,3.2-4.14,4.3-6.34l4.9-9.7c2.66-5.28,4.84-10.29,6.3-16l1.11-4.36c1.61-6.31,1.96-12.35,1.93-19.09l-.03-5.97c-.02-5.26.66-11.36-.94-16.09l-2.16-6.37c-2.05-6.04-3.29-12.88-6.32-18.51-8.55-15.91-13.66-20.83-26.94-31.43-4.44-3.54-9.02-5.92-14.32-7.93l-14.63-5.55c-1.91-.72-5.5-1.89-7.29-2.1l-12.4-1.48c-13.19-1.57-9.7-1.99-23.14-.06l-10.08,1.45c-3.63.52-7.91,2.71-11.62,3.47-3.2.65-6.63.8-9.35,2.15l-13.5,6.7c-.54.27-1.57.99-1.91,1.31s.11,1.48.33,2.57c-3.18,2.19-6.79,4.16-10.61,5.94-.15,3.35-2.65,6.6-6.58,6.93l1.09,2.78c.58,1.47-5.1,2.18-5.4,6.11-2.21,3.09-4.12,6.51-5.69,10.41l-3.32,8.26c-2.12,5.28-3.2,10.56-4.36,16.05-.44,2.09-1.68,4.87-1.74,7-.23,8.25-.7,16.18.92,24.24l1.26,6.29c.8,4.01,1.74,9.08,3.32,12.62l3.26,7.27,5.14,9.88c4.58,8.82,10.08,15.43,17.98,21.62,12.72,9.96,23.83,18.31,40.5,20.77l14.96,2.21Z"/>
          <path class="cls-3" d="M54.56,320.84c-4.7-3.37-17.79-16.77-21.41-22.23l-11.75-17.72c-9.46-14.26-16.02-39.01-18.79-55.85l-2.12-12.92c-.78-4.77-.52-29.09.09-34.89,1.52-14.27,5.5-27.46,10.55-40.6,1.35-3.52,3.54-6.67,5.36-9.98,4.47-8.14,10.63-16.74,17.25-23.2l14.25-13.89c-6.78-2.81-15.05-2.14-24.11-3.79l-15.72-2.85-.46-9.34-.13-27.63c-.02-4.18-.33-8.11.07-12.22.45-4.59.65-8.89.51-13.41l-.27-8.3c2.4-3.02,7.24-1.84,10.89-1.89l44.57-.59,8.69-.07,6.5.61,8.17-.18,9.16-.38,11.8-.17c1.87-.03,4.43.2,6.54.37,6.04.51,6.4-.51,15.27-.25l7.54.22,7.78.3c2.45.09,4.5-.25,7.12-.52,2.35-.23,6.08.22,8.83.12l15.75-.55,6.64.15,3.41,1.08c.81.26,2.68-1.23,3.55-1.26l8.63-.23c11.65-.31,5.83,1.13,14.69.17,2.57-.28,6.07-.12,8.93-.12h26.09s7.33.07,7.33.07l8.82-.13c1.89-.03,5.47.36,7.44.52.85.07,2.85-1.78,3.66-1.49l3.43,1.23c2.15-.26,5.41-.55,7.21-.52l8.28.15h8.33s16.04.13,16.04.13l7.19-.77,15.18.4,7.76.15c2.44.05,5.25.06,7.68-.04l7.58-.3c2.98-.12,5.76.33,8.28.41,1.99.07,5.38-.53,7.65-.55l7.69-.08,7.95-.07h6.83s7.87.1,7.87.1c14.32.16,6.28-.91,15.86-.69l7.22.17,8.46.2,4.73-.6-3.87,7.52-8,4.79c-1.4,7.71-8.5,3.25-8.62,10.89l-3.35,3.07c-1.32,2.24-2.62,3.98-4.06,5.93l-4.5,6.07c-3.84,5.19-2.64,8.08-6.34,10.97-.13-.2.61.91.83,1.24.29.43-1.62,1.38-1.88,1.86-2.36,4.49-4.01,10.32-5.12,15.39l-2.36,10.73c-.15.68-1.37,2.53-1.95,2.21l-2.63-1.47-8.31.17-7.35.15-8.04.17-7.58.03-7.28.2-8.98.37-6.14-.6c-2.38-.23-5.78.48-8.35.41l-7.56-.21-4.12.59c-5.68-.45-11.07-.5-16.59-.32l-13.26.43c1.02,6,7.7,6.24,12.63,12.94l9.47,12.88,4.32,5.95c2.55,3.51,4,8.38,6.21,12.08,1.46,2.44,2.67,4.61,3.52,7.17l4.73,14.31c1.48,4.47,6.15,26.67,6.23,31.61l.21,14.15c.22,14.56-.57,17.89-3.15,31.39l-2.66,13.93c-.58,3.06-1.51,6.16-2.49,8.97l-3.78,10.88c-1.82,5.22-3.44,10.27-6.73,14.65l-3.76,5c-3.47,4.61-4.88,11.59-9.4,15.68-1.56,1.41-2.61,2.7-3.79,4.11l-7.01,8.32c-2.04,2.42-5.63,3.52-7.37,7.09l-7.28,5.8c-2.36,1.88-4.31,4.99-7.08,6.39l-31.62,16c-3.61,1.83-7.42,1.35-11.02,1.81-2.57.33-6.6,3.21-9.54,4.33-1.79.69-5.33.2-7,.69-4.36,1.3-8.74,2.62-13.17,2.92l-9.05.61c-5.45.37-13.62,2.42-19.22,2.24l-7.82-.25-7-.07c-3.99-.04-8.95-1.64-12.58-1.77l-5.5-.2c-5.04-.19-15.48-2.74-20.79-4.23l-20.02-5.6c-9.73-2.72-19.59-8.16-27.89-14.11l-17.51-12.55ZM159.78,278.34c.93.75,1.54,1.59,2.07,1.39,8.37-3.09,8.09.35,16.83-1.42,3.75-.76,5.8-.87,9.5-.91,3.9-.05,8.96-3.11,13.09-3.54,3.51-.36,5.97-1.04,8.84-2.66l8.17-4.59c3.35-1.89,5.58-3.11,8.69-5.63l11.07-8.98c7.9-6.41,15.76-21.41,20.05-30.54,1.44-3.07,4.81-18.26,5.31-23.02.69-6.51.78-12.87.81-19.51.03-7.51-2.9-15.49-4.83-21.76l-2.73-8.93c-3.12-10.19-10.68-18.83-18.21-26.53l-5.81-5.94c-2.54-2.6-6.58-5.17-9.86-7.05l-11.52-6.58c-2.66-1.52-14.44-6.07-17.43-6.45l-9.4-1.21-14.54-1.22c-2.23-.19-4.62.21-6.93.38-2.62.19-5.57-.33-8.1.89-1.94.93-3.55.8-5.48-.05l-12.13,4.86c-6.06-1.74-6.38,1.12-14.89,4.91-2.88,1.28-3.83,1.63-5.14,3.9-2.88,5-9.95,5.46-13.44,9.41-8.59,9.72-4.68,2.94-12.04,13.59l-4.16,6.02c-.58,1.37-1.32,2.88-2.34,4.44-1.64,2.5-2.81,5.65-4.06,8.41-4.26,9.39.53.34-4,14.29-2.43,7.48-1.75,15.76-1.86,23.71-.12,8.6.54,17.1,2.73,25.35l2.22,8.35c.51,1.93,1.67,5.72,2.71,7.41,11.64,19.15,14.54,23.03,32.94,35.2,5.74,3.8,24.43,11.95,32.55,12.8l11.31,1.19Z"/>
        </g>
      </g>
    </g>
  </g>
</svg>